<svg height="512pt" viewBox="-16 0 512 512" width="512pt" xmlns="http://www.w3.org/2000/svg"><g fill-rule="evenodd"><path d="m49.433594 133.066406 39.453125-39.457031 4.726562-4.726563-39.429687-39.429687-41.820313 41.820313-2.359375 2.363281zm0 0" fill="#fd4a4a"/><path d="m93.613281 88.882812-4.726562 4.726563-39.453125 39.457031 30.410156 30.410156 4.726562-4.726562 39.457032-39.453125zm0 0" fill="#00d8ce"/><path d="m348.898438 432.535156 63.914062 19.769532c.007812 0 .019531-.003907.027344-.007813.003906-.011719.007812-.023437.011718-.035156l-19.773437-63.910157-192.535156-192.535156-76.519531-76.523437-39.453126 39.457031-4.726562 4.726562 160.15625 160.15625zm0 0" fill="#ffce34"/><path d="m452.316406 412.835938c-9.296875 2.875-17.75 7.972656-24.628906 14.851562s-11.976562 15.332031-14.851562 24.625l57.164062 17.6875zm0 0" fill="#3c9fd7"/></g><path d="m479.550781 467.042969c-.003906-.011719.007813.023437.003907.011719-.003907-.011719 0 0-.003907-.011719l-37.464843-121.101563c-.480469-1.554687-1.332032-2.964844-2.480469-4.117187l-338.898438-338.894531c-.003906-.007813.015625.011718.007813.003906-.007813-.003906 0 0-.007813-.003906-3.902343-3.90625-10.234375-3.90625-14.140625 0l-83.636718 83.632812c-1.875 1.875-2.929688 4.417969-2.929688 7.070312 0 2.652344 1.054688 5.195313 2.929688 7.070313l338.898437 338.898437c1.148437 1.152344 2.5625 2 4.113281 2.484376l121.097656 37.464843h.003907c.007812.003907-.003907 0 0 0 .972656.300781 1.96875.449219 2.957031.449219 2.609375 0 5.167969-1.027344 7.070312-2.929688 2.625-2.625 3.578126-6.484374 2.480469-10.027343zm-415.976562-333.976563 69.496093-69.496094 16.265626 16.273438-69.492188 69.492188zm30.0625-108.925781 25.289062 25.289063-69.492187 69.492187-25.289063-25.289063zm.351562 139.335937 69.492188-69.492187 260.234375 260.234375 16.308594 52.714844c-4.160157 1.984375-8.125 4.371094-11.816407 7.128906l-57.8125-57.8125c-3.90625-3.90625-10.238281-3.90625-14.144531 0-3.90625 3.902344-3.90625 10.234375 0 14.140625l57.8125 57.8125c-2.753906 3.695313-5.144531 7.65625-7.125 11.816406l-52.71875-16.308593zm332.351563 282.546876c2.265625-4.125 5.089844-7.9375 8.421875-11.265626 3.328125-3.332031 7.140625-6.15625 11.265625-8.421874l8.816406 28.507812zm0 0"/><path d="m351.164062 337.019531-.3125-.3125c-3.90625-3.90625-10.234374-3.90625-14.144531 0-3.902343 3.902344-3.902343 10.234375 0 14.140625l.316407.316406c1.953124 1.949219 4.511718 2.925782 7.070312 2.925782s5.117188-.976563 7.070312-2.925782c3.90625-3.90625 3.90625-10.238281 0-14.144531zm0 0"/><path d="m437.835938 492h-40c-5.523438 0-10 4.476562-10 10s4.476562 10 10 10h40c5.519531 0 10-4.476562 10-10s-4.480469-10-10-10zm0 0"/><path d="m337.835938 492h-40c-5.523438 0-10 4.476562-10 10s4.476562 10 10 10h40c5.519531 0 10-4.476562 10-10s-4.480469-10-10-10zm0 0"/><path d="m156.269531 492h-.476562c-5.523438 0-10 4.476562-10 10s4.476562 10 10 10h.476562c5.519531 0 10-4.476562 10-10s-4.480469-10-10-10zm0 0"/><path d="m244.957031 492h-59.605469c-5.523437 0-10 4.476562-10 10s4.476563 10 10 10h59.605469c5.519531 0 10-4.476562 10-10s-4.480469-10-10-10zm0 0"/></svg>