<?xml version="1.0" encoding="iso-8859-1"?>
<!-- Generator: Adobe Illustrator 19.0.0, SVG Export Plug-In . SVG Version: 6.00 Build 0)  -->
<svg version="1.1" id="Capa_1" xmlns="http://www.w3.org/2000/svg" xmlns:xlink="http://www.w3.org/1999/xlink" x="0px" y="0px"
	 viewBox="0 0 512 512" style="enable-background:new 0 0 512 512;" xml:space="preserve">
<path style="fill:#72D8FF;" d="M76,163l-66,53v245c0,22.644,18.356,41,41,41h410c22.644,0,41-18.356,41-41V216l-66-51.397"/>
<rect x="80" y="10" style="fill:#EDF2FA;" width="352" height="381.06"/>
<g>
	<polygon style="fill:#FFFFFF;" points="502,281.214 502,216 323,395.59 388,395.59 	"/>
	<path style="fill:#FFFFFF;" d="M75,461V283.271L10,216v245c0,22.644,18.356,41,41,41h65C93.356,502,75,483.644,75,461z"/>
</g>
<path style="fill:#FEDA9B;" d="M502,461V281.214L388,395.59h-65h-74.473h-65L75,283.271V461c0,22.644,18.356,41,41,41h345
	C483.644,502,502,483.644,502,461z"/>
<path style="fill:#FFFFFF;" d="M301.447,348.403c-36.102-18.533-81.061-13.587-112.407,14.888L44.055,495h90.895l144.986-131.709
	C286.564,357.269,293.812,352.322,301.447,348.403z"/>
<path style="fill:#FFB954;" d="M301.447,348.403c-7.635,3.92-14.883,8.866-21.512,14.888L134.949,495h332.996L322.959,363.291
	C316.33,357.269,309.083,352.322,301.447,348.403z"/>
<path style="fill:#FF5D5D;" d="M357.71,130.09c12.694-12.694,12.694-33.275,0-45.969s-33.275-12.694-45.969,0L357.71,130.09z"/>
<path style="fill:#FFFFFF;" d="M176.981,252.851l37.642-37.642l37.108,37.108l0,0l-62.173-62.173l-37.643,37.642
	c-17.168,17.169-17.168,45.004,0,62.173l0,0c4.461,4.46,9.644,7.751,15.171,9.894C160.982,284.109,164.273,265.559,176.981,252.851z
	"/>
<path style="fill:#FF5D5D;" d="M214.089,289.959l37.642-37.643l-37.108-37.108l-37.642,37.642
	c-12.708,12.708-15.999,31.257-9.894,47.002C182.832,305.958,201.381,302.667,214.089,289.959z"/>
<polygon style="fill:#FFFFFF;" points="272.119,272.711 251.744,252.336 224.974,279.075 269.046,323.147 269.046,323.147 
	245.349,299.45 "/>
<polygon style="fill:#6A80FF;" points="272.119,272.711 245.349,299.45 269.046,323.147 295.8,296.392 "/>
<polygon style="fill:#FFFFFF;" points="296.615,68.994 257.708,30.087 189.559,190.144 251.744,252.336 251.747,252.335 
	228.466,229.051 "/>
<polygon style="fill:#4DBAF6;" points="296.615,68.994 228.466,229.051 251.747,252.335 411.744,184.123 "/>
<polygon style="fill:#FFFFFF;" points="370.683,201.628 411.744,184.123 257.708,30.087 240.218,71.164 "/>
<path d="M190.93,58.93C189.07,60.79,188,63.37,188,66c0,2.63,1.07,5.21,2.93,7.069C192.79,74.93,195.37,76,198,76
	s5.21-1.07,7.07-2.931C206.93,71.21,208,68.63,208,66s-1.07-5.21-2.93-7.07S200.63,56,198,56S192.79,57.069,190.93,58.93z"/>
<path d="M120.875,76h40.173c5.523,0,10-4.478,10-10s-4.477-10-10-10h-40.173c-5.523,0-10,4.478-10,10S115.352,76,120.875,76z"/>
<path d="M120.875,132h48.194c5.523,0,10-4.478,10-10s-4.477-10-10-10h-48.194c-5.523,0-10,4.478-10,10S115.352,132,120.875,132z"/>
<path d="M508.14,208.118c0.001-0.003,0.003-0.005,0.004-0.008l-66-51.397c-0.047-0.036-0.097-0.065-0.144-0.101V146
	c0-5.522-4.477-10-10-10s-10,4.478-10,10v135.667c0,0.061,0.008,0.12,0.009,0.181l-82.745,82.745l-9.581-8.703
	c-14.974-13.604-33.221-22.673-52.776-26.462l25.964-25.964c3.905-3.905,3.905-10.237,0-14.143l-33.59-33.591l146.384-62.408
	c3.055-1.303,5.265-4.038,5.896-7.299s-0.398-6.623-2.747-8.972l-47.799-47.8c4.046-6.603,6.215-14.207,6.215-22.147
	c0-11.354-4.421-22.027-12.449-30.056c-8.028-8.028-18.702-12.449-30.056-12.449c-7.94,0-15.544,2.169-22.147,6.215l-47.8-47.8
	c-2.35-2.35-5.71-3.382-8.974-2.746c-3.262,0.632-5.996,2.843-7.298,5.899l-67.391,158.275l-36.272,36.271
	c-10.192,10.192-15.806,23.744-15.806,38.158s5.614,27.965,15.806,38.157c10.192,10.192,23.744,15.806,38.158,15.806
	s27.965-5.613,38.157-15.806l3.814-3.814l34.254,34.254c-1.074-0.031-2.15-0.053-3.228-0.053c-27.305,0-53.473,10.111-73.684,28.472
	l-9.581,8.703l-82.745-82.745c0.001-0.061,0.009-0.12,0.009-0.182V20h111.987c5.523,0,10-4.478,10-10s-4.477-10-10-10H80
	c-5.523,0-10,4.478-10,10v145.014c-0.086,0.065-0.177,0.121-0.261,0.189l-66,53c0.001,0.002,0.001,0.003,0.002,0.005
	C1.462,210.041,0,212.848,0,216v245c0,28.121,22.878,51,51,51h410c28.122,0,51-22.879,51-51V216
	C512,212.794,510.486,209.948,508.14,208.118z M243.618,88.706l109.528,109.528l-99.104,42.252l-52.637-52.637L243.618,88.706z
	 M334.726,84.601c6.011,0,11.663,2.341,15.914,6.592c4.25,4.25,6.591,9.901,6.591,15.913c0,2.48-0.42,4.891-1.187,7.176
	L327.55,85.787C329.835,85.02,332.246,84.601,334.726,84.601z M261.108,47.629l43.55,43.55c0.004,0.004,0.008,0.009,0.012,0.014
	s0.009,0.008,0.014,0.012l45.955,45.955c0,0.001,0.001,0.001,0.001,0.002s0.001,0.001,0.002,0.001l43.566,43.566l-21.23,9.051
	L252.065,68.867L261.108,47.629z M183.003,292.836c-9.072,0-17.601-3.533-24.016-9.948c-6.415-6.414-9.948-14.943-9.948-24.015
	c0-9.072,3.533-17.601,9.948-24.016l30.571-30.571l48.029,48.034l-30.569,30.568C200.604,289.303,192.075,292.836,183.003,292.836z
	 M251.728,266.463l29.93,29.93l-12.612,12.611l-29.93-29.93L251.728,266.463z M442,181.949l44.924,34.984L442,261.857V181.949z
	 M195.765,370.692c34.34-31.195,86.131-31.195,120.471,0L449.77,492H62.23l33.024-30h73.403c5.523,0,10-4.478,10-10s-4.477-10-10-10
	H117.27L195.765,370.692z M70,180.643v81.215l-45.043-45.043L70,180.643z M20,461V240.143l137.915,137.914L37.331,487.599
	c-0.283,0.257-0.544,0.53-0.791,0.81C26.713,483.204,20,472.874,20,461z M475.46,488.409c-0.247-0.281-0.508-0.553-0.791-0.81
	L354.086,378.057L492,240.143V461C492,472.874,485.287,483.204,475.46,488.409z"/>
<path d="M392,60.792c2.559,0,5.119-0.977,7.071-2.929l40.396-40.396c3.905-3.905,3.905-10.237,0-14.143
	c-3.905-3.904-10.237-3.904-14.142,0L384.929,43.72c-3.905,3.905-3.905,10.237,0,14.143C386.882,59.815,389.441,60.792,392,60.792z"
	/>
<path d="M354.412,40.087c5.523,0,10-4.478,10-10V10c0-5.522-4.477-10-10-10s-10,4.478-10,10v20.087
	C344.412,35.609,348.889,40.087,354.412,40.087z"/>
<path d="M432.688,77.521h-20.759c-5.523,0-10,4.478-10,10s4.477,10,10,10h20.759c5.523,0,10-4.478,10-10
	S438.211,77.521,432.688,77.521z"/>
<path d="M209.66,462c2.63,0,5.2-1.07,7.07-2.931c1.86-1.859,2.93-4.439,2.93-7.069s-1.07-5.21-2.93-7.07
	c-1.87-1.86-4.44-2.93-7.07-2.93c-2.64,0-5.21,1.069-7.08,2.93c-1.86,1.86-2.92,4.44-2.92,7.07s1.06,5.21,2.92,7.069
	C204.45,460.93,207.03,462,209.66,462z"/>
<g>
</g>
<g>
</g>
<g>
</g>
<g>
</g>
<g>
</g>
<g>
</g>
<g>
</g>
<g>
</g>
<g>
</g>
<g>
</g>
<g>
</g>
<g>
</g>
<g>
</g>
<g>
</g>
<g>
</g>
</svg>
