<svg height="511pt" viewBox="1 0 511.999 511" width="511pt" xmlns="http://www.w3.org/2000/svg"><path d="m455.816406 396.339844h45.980469v105.957031h-45.980469zm0 0" fill="#fd3c65"/><path d="m455.816406 336.363281h45.980469v59.976563h-45.980469zm0 0" fill="#4dbbeb"/><path d="m378.847656 196.8125v285.492188c0 11.046874-8.949218 19.992187-19.992187 19.992187h-328.867188c-11.046875 0-19.992187-8.945313-19.992187-19.992187v-451.816407c0-11.046875 8.945312-19.992187 19.992187-19.992187h268.890625v62.976562c0 11.042969 8.945313 19.988282 19.992188 19.988282h59.976562zm0 0" fill="#fff"/><path d="m498.742188 141.144531c-7.753907-5.082031-18.265626-4.21875-25.078126 2.605469l-28.269531 28.265625 22.484375 22.484375 28.269532-28.277344c6.816406-6.816406 7.679687-17.324218 2.59375-25.078125zm0 0" fill="#feb756"/><path d="m467.878906 194.5-22.484375-22.484375-45.539062 44.722656-121.238281 119.058594 1.277343 1.277344 19.929688 19.925781 1.273437 1.273438 77.75-76.347657zm0 0" fill="#fd3c65"/><path d="m298.878906 10.496094 79.96875 82.964844h-59.976562c-11.046875 0-19.992188-8.945313-19.992188-19.988282zm0 0" fill="#4dbbeb"/><path d="m298.878906 156.4375c11.046875 0 19.992188 8.945312 19.992188 19.992188 0 11.042968-8.945313 19.992187-19.992188 19.992187s-19.992187-8.949219-19.992187-19.992187c0-11.046876 8.945312-19.992188 19.992187-19.992188zm0 0" fill="#fd3c65"/><path d="m298.878906 396.339844c11.046875 0 19.992188 8.945312 19.992188 19.992187s-8.945313 19.992188-19.992188 19.992188-19.992187-8.945313-19.992187-19.992188 8.945312-19.992187 19.992187-19.992187zm0 0" fill="#fd3c65"/><path d="m301.097656 358.273438-66.613281 21.214843 24.199219-63.617187 21.210937 21.203125zm0 0" fill="#feb756"/><g fill="#fd3c65"><path d="m195.921875 156.4375c11.042969 0 19.992187 8.945312 19.992187 19.992188 0 11.042968-8.949218 19.992187-19.992187 19.992187-11.046875 0-19.992187-8.949219-19.992187-19.992187 0-11.046876 8.945312-19.992188 19.992187-19.992188zm0 0"/><path d="m195.921875 276.386719c11.042969 0 19.992187 8.949219 19.992187 19.992187 0 11.046875-8.949218 19.992188-19.992187 19.992188-11.046875 0-19.992187-8.945313-19.992187-19.992188 0-11.042968 8.945312-19.992187 19.992187-19.992187zm0 0"/><path d="m195.921875 396.339844c11.042969 0 19.992187 8.945312 19.992187 19.992187s-8.949218 19.992188-19.992187 19.992188c-11.046875 0-19.992187-8.945313-19.992187-19.992188s8.945312-19.992187 19.992187-19.992187zm0 0"/><path d="m92.960938 156.4375c11.046874 0 19.992187 8.945312 19.992187 19.992188 0 11.042968-8.945313 19.992187-19.992187 19.992187-11.042969 0-19.992188-8.949219-19.992188-19.992187 0-11.046876 8.949219-19.992188 19.992188-19.992188zm0 0"/><path d="m92.960938 276.386719c11.046874 0 19.992187 8.949219 19.992187 19.992187 0 11.046875-8.945313 19.992188-19.992187 19.992188-11.042969 0-19.992188-8.945313-19.992188-19.992188 0-11.042968 8.949219-19.992187 19.992188-19.992187zm0 0"/><path d="m92.960938 396.339844c11.046874 0 19.992187 8.945312 19.992187 19.992187s-8.945313 19.992188-19.992187 19.992188c-11.042969 0-19.992188-8.945313-19.992188-19.992188s8.949219-19.992187 19.992188-19.992187zm0 0"/></g><path d="m92.960938 146.441406c-16.535157 0-29.988282 13.453125-29.988282 29.988282 0 16.535156 13.453125 29.988281 29.988282 29.988281 16.535156 0 29.988281-13.453125 29.988281-29.988281 0-16.535157-13.453125-29.988282-29.988281-29.988282zm0 39.984375c-5.511719 0-9.996094-4.484375-9.996094-9.996093 0-5.511719 4.484375-9.996094 9.996094-9.996094 5.511718 0 9.996093 4.484375 9.996093 9.996094 0 5.511718-4.484375 9.996093-9.996093 9.996093zm0 0"/><path d="m165.933594 176.429688c0 16.535156 13.453125 29.988281 29.988281 29.988281s29.988281-13.453125 29.988281-29.988281c0-16.535157-13.453125-29.988282-29.988281-29.988282s-29.988281 13.453125-29.988281 29.988282zm29.988281-9.996094c5.511719 0 9.996094 4.484375 9.996094 9.996094 0 5.511718-4.484375 9.996093-9.996094 9.996093s-9.996094-4.484375-9.996094-9.996093c0-5.511719 4.484375-9.996094 9.996094-9.996094zm0 0"/><path d="m298.878906 206.417969c16.535156 0 29.988282-13.453125 29.988282-29.988281 0-16.535157-13.453126-29.988282-29.988282-29.988282s-29.988281 13.453125-29.988281 29.988282c0 16.535156 13.453125 29.988281 29.988281 29.988281zm0-39.984375c5.511719 0 9.996094 4.484375 9.996094 9.996094 0 5.511718-4.484375 9.996093-9.996094 9.996093-5.511718 0-9.996094-4.484375-9.996094-9.996093 0-5.511719 4.484376-9.996094 9.996094-9.996094zm0 0"/><path d="m92.960938 266.390625c-16.535157 0-29.988282 13.453125-29.988282 29.988281s13.453125 29.988282 29.988282 29.988282c16.535156 0 29.988281-13.453126 29.988281-29.988282s-13.453125-29.988281-29.988281-29.988281zm0 39.984375c-5.511719 0-9.996094-4.484375-9.996094-9.996094 0-5.511718 4.484375-9.996094 9.996094-9.996094 5.511718 0 9.996093 4.484376 9.996093 9.996094 0 5.511719-4.484375 9.996094-9.996093 9.996094zm0 0"/><path d="m195.921875 266.390625c-16.535156 0-29.988281 13.453125-29.988281 29.988281s13.453125 29.988282 29.988281 29.988282 29.988281-13.453126 29.988281-29.988282-13.453125-29.988281-29.988281-29.988281zm0 39.984375c-5.511719 0-9.996094-4.484375-9.996094-9.996094 0-5.511718 4.484375-9.996094 9.996094-9.996094s9.996094 4.484376 9.996094 9.996094c0 5.511719-4.484375 9.996094-9.996094 9.996094zm0 0"/><path d="m92.960938 386.34375c-16.535157 0-29.988282 13.453125-29.988282 29.988281 0 16.535157 13.453125 29.988281 29.988282 29.988281 16.535156 0 29.988281-13.453124 29.988281-29.988281 0-16.535156-13.453125-29.988281-29.988281-29.988281zm0 39.984375c-5.511719 0-9.996094-4.484375-9.996094-9.996094s4.484375-9.996093 9.996094-9.996093c5.511718 0 9.996093 4.484374 9.996093 9.996093s-4.484375 9.996094-9.996093 9.996094zm0 0"/><path d="m195.921875 386.34375c-16.535156 0-29.988281 13.453125-29.988281 29.988281 0 16.535157 13.453125 29.988281 29.988281 29.988281s29.988281-13.453124 29.988281-29.988281c0-16.535156-13.453125-29.988281-29.988281-29.988281zm0 39.984375c-5.511719 0-9.996094-4.484375-9.996094-9.996094s4.484375-9.996093 9.996094-9.996093 9.996094 4.484374 9.996094 9.996093-4.484375 9.996094-9.996094 9.996094zm0 0"/><path d="m268.890625 416.332031c0 16.535157 13.453125 29.988281 29.988281 29.988281s29.988282-13.453124 29.988282-29.988281c0-16.535156-13.453126-29.988281-29.988282-29.988281s-29.988281 13.453125-29.988281 29.988281zm39.984375 0c0 5.511719-4.484375 9.996094-9.996094 9.996094-5.511718 0-9.996094-4.484375-9.996094-9.996094s4.484376-9.996093 9.996094-9.996093c5.511719 0 9.996094 4.484374 9.996094 9.996093zm0 0"/><path d="m72.96875 83.464844h102.960938c5.519531 0 9.996093-4.472656 9.996093-9.992188 0-5.523437-4.476562-9.996094-9.996093-9.996094h-102.960938c-5.519531 0-9.996094 4.472657-9.996094 9.996094 0 5.519532 4.476563 9.992188 9.996094 9.992188zm0 0"/><path d="m501.796875 326.367188h-79.96875c-5.519531 0-9.996094 4.476562-9.996094 9.996093v165.933594c0 5.519531 4.476563 9.996094 9.996094 9.996094h79.96875c5.519531 0 9.996094-4.476563 9.996094-9.996094v-165.933594c0-5.519531-4.476563-9.996093-9.996094-9.996093zm-9.996094 19.992187v39.984375h-59.976562v-39.984375zm-59.976562 145.941406v-85.964843h59.976562v85.964843zm0 0"/><path d="m474.882812 201.632812c.011719-.007812.019532-.019531.027344-.03125.015625-.011718.027344-.023437.039063-.035156l28.265625-28.277344c5.664062-5.664062 8.785156-13.191406 8.785156-21.199218 0-8.011719-3.121094-15.539063-8.785156-21.203125l-14.128906-14.128907c-5.664063-5.671874-13.195313-8.796874-21.210938-8.796874s-15.550781 3.125-21.210938 8.789062l-28.257812 28.261719-29.5625 29.035156v-80.585937c0-.113282-.015625-.226563-.019531-.34375-.003907-.183594-.011719-.367188-.027344-.550782-.015625-.160156-.039063-.316406-.058594-.472656-.023437-.167969-.042969-.332031-.074219-.496094-.03125-.164062-.070312-.324218-.109374-.488281-.039063-.152344-.074219-.304687-.121094-.457031-.046875-.164063-.101563-.320313-.15625-.476563-.050782-.152343-.101563-.300781-.164063-.453125-.058593-.148437-.125-.296875-.195312-.441406-.070313-.152344-.136719-.300781-.214844-.445312-.074219-.144532-.15625-.28125-.234375-.417969-.085938-.140625-.167969-.285157-.261719-.425781-.089843-.140626-.1875-.273438-.285156-.40625-.09375-.128907-.1875-.257813-.285156-.382813-.117188-.144531-.238281-.277344-.363281-.414063-.078126-.085937-.144532-.179687-.226563-.261718l-79.96875-82.96875c-.019531-.023438-.046875-.039063-.066406-.0625-.132813-.132813-.269531-.257813-.40625-.382813-.109375-.097656-.214844-.203125-.328125-.296875-.125-.105468-.257813-.199218-.390625-.296875-.128907-.101562-.257813-.203125-.394531-.296875-.117188-.078125-.242188-.148437-.363282-.222656-.15625-.097656-.308594-.199219-.464844-.285156-.132812-.074219-.273437-.132813-.414062-.199219-.148438-.074219-.300781-.15625-.453125-.21875-.183594-.078125-.375-.140625-.5625-.207031-.113281-.042969-.226563-.089844-.34375-.128906-.191406-.058594-.382813-.101563-.578125-.152344-.121094-.027344-.242188-.066406-.367188-.09375-.164062-.035156-.335937-.054688-.507812-.082032-.15625-.023437-.308594-.054687-.464844-.070312-.148437-.015625-.296875-.019531-.449218-.03125-.183594-.011719-.363282-.023438-.550782-.027344-.027344 0-.058594-.003906-.089844-.003906h-268.894531c-16.535156 0-29.988281 13.453125-29.988281 29.988281v451.816407c0 16.535156 13.453125 29.988281 29.988281 29.988281h328.867188c16.535156 0 29.988281-13.453125 29.988281-29.988281v-196.179688zm-173.722656 142.570313-28.273437-28.269531 152.515625-149.773438 28.277344 28.277344zm-38.621094-10.347656 19.878907 19.878906-31.222657 9.941406zm198.269532-202.972657c1.886718-1.886718 4.394531-2.929687 7.066406-2.929687 2.667969 0 5.179688 1.042969 7.070312 2.9375l14.132813 14.132813c1.890625 1.886718 2.929687 4.398437 2.929687 7.066406 0 2.667968-1.039062 5.179687-2.929687 7.066406l-21.199219 21.207031-28.277344-28.273437zm-151.933594-95.613281 46.453125 48.195313h-36.457031c-5.511719 0-9.996094-4.480469-9.996094-9.992188zm59.976562 447.035157c0 5.511718-4.484374 9.996093-9.996093 9.996093h-328.867188c-5.511719 0-9.996093-4.484375-9.996093-9.996093v-451.816407c0-5.511719 4.484374-9.996093 9.996093-9.996093h258.894531v52.980468c0 16.535156 13.453126 29.984375 29.988282 29.984375h49.980468v90.222657l-117.171874 115.0625c-.078126.078124-.148438.164062-.226563.246093-.09375.101563-.1875.199219-.28125.304688-.183594.210937-.355469.425781-.519531.648437-.058594.078125-.121094.15625-.179688.238282-.449218.648437-.8125 1.335937-1.089844 2.050781-.011718.03125-.03125.058593-.042968.089843l-24.199219 63.613282c-1.363281 3.585937-.554687 7.636718 2.082031 10.425781 1.917969 2.027344 4.558594 3.125 7.261719 3.125 1.015625 0 2.035156-.15625 3.03125-.472656l66.613281-21.210938c.046875-.015625.089844-.039062.136719-.054687.316406-.105469.625-.226563.929687-.363282.082032-.039062.164063-.074218.246094-.113281.320313-.15625.632813-.324219.9375-.515625.035156-.019531.066406-.039062.097656-.058594.328126-.207031.644532-.441406.949219-.691406.082031-.066406.152344-.136718.230469-.203125.148438-.128906.300781-.253906.445312-.394531l60.75-59.652344zm0 0"/></svg>