<svg xmlns="http://www.w3.org/2000/svg" height="512pt" version="1.1" viewBox="0 -20 512 511" width="512pt">
<g id="surface1">
<path d="M 378.050781 50.5 L 417.679688 50.5 C 434.425781 50.5 448 68.410156 448 90.5 L 448 370.5 C 448 392.589844 434.425781 410.5 417.679688 410.5 L 146.320312 410.5 C 129.574219 410.5 116 392.589844 116 370.5 L 116 90.5 C 116 68.410156 129.574219 50.5 146.320312 50.5 Z M 378.050781 50.5 " style=" stroke:none;fill-rule:nonzero;fill:rgb(100%,36.470588%,36.470588%);fill-opacity:1;" />
<path d="M 10 146.957031 L 10 370.5 C 10 392.589844 27.910156 410.5 50 410.5 L 408 410.5 C 430.09375 410.5 448 392.589844 448 370.5 L 448 146.957031 Z M 10 146.957031 " style=" stroke:none;fill-rule:nonzero;fill:rgb(100%,100%,100%);fill-opacity:1;" />
<path d="M 320.21875 65.75 L 320.21875 27.25 C 320.21875 18 327.714844 10.5 336.964844 10.5 C 346.214844 10.5 353.714844 18 353.714844 27.25 L 353.714844 65.75 C 353.714844 75 346.214844 82.5 336.964844 82.5 C 327.714844 82.5 320.21875 75.003906 320.21875 65.75 Z M 320.21875 65.75 " style=" stroke:none;fill-rule:nonzero;fill:rgb(100%,77.647059%,42.352941%);fill-opacity:1;" />
<path d="M 212.25 65.75 L 212.25 27.25 C 212.25 18 219.75 10.5 229 10.5 C 238.25 10.5 245.75 18 245.75 27.25 L 245.75 65.75 C 245.75 75 238.25 82.5 229 82.5 C 219.75 82.5 212.25 75.003906 212.25 65.75 Z M 212.25 65.75 " style=" stroke:none;fill-rule:nonzero;fill:rgb(100%,77.647059%,42.352941%);fill-opacity:1;" />
<path d="M 104.285156 65.75 L 104.285156 27.25 C 104.285156 18 111.785156 10.5 121.035156 10.5 C 130.285156 10.5 137.785156 18 137.785156 27.25 L 137.785156 65.75 C 137.785156 75 130.285156 82.5 121.035156 82.5 C 111.785156 82.5 104.285156 75.003906 104.285156 65.75 Z M 104.285156 65.75 " style=" stroke:none;fill-rule:nonzero;fill:rgb(100%,77.647059%,42.352941%);fill-opacity:1;" />
<path d="M 110.875 196.167969 C 100.695312 201.523438 93.75 212.199219 93.75 224.5 C 93.75 236.800781 100.695312 247.476562 110.875 252.832031 C 121.054688 247.476562 128 236.800781 128 224.5 C 128 212.199219 121.054688 201.523438 110.875 196.167969 Z M 110.875 196.167969 " style=" stroke:none;fill-rule:nonzero;fill:rgb(100%,77.647059%,42.352941%);fill-opacity:1;" />
<path d="M 243.875 196.167969 C 233.695312 201.523438 226.75 212.199219 226.75 224.5 C 226.75 236.800781 233.695312 247.476562 243.875 252.832031 C 254.054688 247.476562 261 236.800781 261 224.5 C 261 212.199219 254.054688 201.523438 243.875 196.167969 Z M 243.875 196.167969 " style=" stroke:none;fill-rule:nonzero;fill:rgb(100%,77.647059%,42.352941%);fill-opacity:1;" />
<path d="M 376.875 196.167969 C 366.695312 201.523438 359.75 212.199219 359.75 224.5 C 359.75 236.800781 366.695312 247.476562 376.875 252.832031 C 387.054688 247.476562 394 236.800781 394 224.5 C 394 212.199219 387.054688 201.523438 376.875 196.167969 Z M 376.875 196.167969 " style=" stroke:none;fill-rule:nonzero;fill:rgb(100%,77.647059%,42.352941%);fill-opacity:1;" />
<path d="M 110.875 303.898438 C 100.695312 309.257812 93.75 319.929688 93.75 332.230469 C 93.75 344.535156 100.695312 355.207031 110.875 360.5625 C 121.054688 355.207031 128 344.53125 128 332.230469 C 128 319.929688 121.054688 309.257812 110.875 303.898438 Z M 110.875 303.898438 " style=" stroke:none;fill-rule:nonzero;fill:rgb(100%,77.647059%,42.352941%);fill-opacity:1;" />
<path d="M 243.875 303.898438 C 233.695312 309.257812 226.75 319.929688 226.75 332.230469 C 226.75 344.535156 233.695312 355.207031 243.875 360.5625 C 254.054688 355.207031 261 344.53125 261 332.230469 C 261 319.929688 254.054688 309.257812 243.875 303.898438 Z M 243.875 303.898438 " style=" stroke:none;fill-rule:nonzero;fill:rgb(100%,77.647059%,42.352941%);fill-opacity:1;" />
<path d="M 376.875 303.898438 C 366.695312 309.257812 359.75 319.929688 359.75 332.230469 C 359.75 344.535156 366.695312 355.207031 376.875 360.5625 C 387.054688 355.207031 394 344.53125 394 332.230469 C 394 319.929688 387.054688 309.257812 376.875 303.898438 Z M 376.875 303.898438 " style=" stroke:none;fill-rule:nonzero;fill:rgb(100%,77.647059%,42.352941%);fill-opacity:1;" />
<path d="M 411 390.4375 C 411 360.035156 429.855469 334.050781 456.5 323.496094 C 448.296875 320.242188 439.359375 318.4375 430 318.4375 C 390.234375 318.4375 358 350.671875 358 390.4375 C 358 430.203125 390.234375 462.4375 430 462.4375 C 439.359375 462.4375 448.296875 460.632812 456.5 457.382812 C 429.855469 446.824219 411 420.839844 411 390.4375 Z M 411 390.4375 " style=" stroke:none;fill-rule:nonzero;fill:rgb(100%,100%,100%);fill-opacity:1;" />
<path d="M 502 390.4375 C 502 360.035156 483.144531 334.050781 456.5 323.496094 C 429.855469 334.054688 411 360.035156 411 390.4375 C 411 420.839844 429.855469 446.824219 456.5 457.382812 C 483.144531 446.824219 502 420.839844 502 390.4375 Z M 502 390.4375 " style=" stroke:none;fill-rule:nonzero;fill:rgb(62.745098%,89.803922%,34.117647%);fill-opacity:1;" />
<path d="M 309 400.5 C 306.371094 400.5 303.789062 401.566406 301.929688 403.429688 C 300.070312 405.289062 299 407.867188 299 410.5 C 299 413.128906 300.070312 415.710938 301.929688 417.566406 C 303.789062 419.429688 306.371094 420.5 309 420.5 C 311.628906 420.5 314.210938 419.429688 316.070312 417.566406 C 317.929688 415.710938 319 413.136719 319 410.5 C 319 407.867188 317.929688 405.289062 316.070312 403.429688 C 314.210938 401.570312 311.628906 400.5 309 400.5 Z M 309 400.5 " style=" stroke:none;fill-rule:nonzero;fill:rgb(0%,0%,0%);fill-opacity:1;" />
<path d="M 458 313.367188 L 458 90.5 C 458 62.929688 435.570312 40.5 408 40.5 L 363.714844 40.5 L 363.714844 27.25 C 363.714844 12.5 351.714844 0.5 336.964844 0.5 C 322.21875 0.5 310.21875 12.5 310.21875 27.25 L 310.21875 40.5 L 255.75 40.5 L 255.75 27.25 C 255.75 12.5 243.75 0.5 229 0.5 C 214.25 0.5 202.25 12.5 202.25 27.25 L 202.25 40.5 L 147.78125 40.5 L 147.78125 27.25 C 147.78125 12.5 135.78125 0.5 121.035156 0.5 C 106.285156 0.5 94.285156 12.5 94.285156 27.25 L 94.285156 40.5 L 50 40.5 C 22.429688 40.5 0 62.929688 0 90.5 L 0 370.5 C 0 398.070312 22.429688 420.5 50 420.5 L 261 420.5 C 266.523438 420.5 271 416.023438 271 410.5 C 271 404.976562 266.523438 400.5 261 400.5 L 50 400.5 C 33.457031 400.5 20 387.042969 20 370.5 L 20 156.957031 L 438 156.957031 L 438 308.832031 C 435.367188 308.578125 432.699219 308.4375 430 308.4375 C 419.394531 308.4375 409.265625 310.484375 399.953125 314.164062 C 393.179688 299.800781 378.671875 290.230469 362 290.230469 C 338.839844 290.230469 320 309.070312 320 332.230469 C 320 351.222656 332.675781 367.300781 350.007812 372.476562 C 348.707031 378.261719 348 384.265625 348 390.4375 C 348 435.652344 384.785156 472.4375 430 472.4375 C 475.214844 472.4375 512 435.652344 512 390.4375 C 512 355.050781 489.46875 324.835938 458 313.367188 Z M 330.21875 27.25 C 330.21875 23.527344 333.242188 20.5 336.964844 20.5 C 340.6875 20.5 343.714844 23.527344 343.714844 27.25 L 343.714844 65.75 C 343.714844 69.472656 340.6875 72.5 336.964844 72.5 C 333.242188 72.5 330.21875 69.472656 330.21875 65.75 Z M 222.25 27.25 C 222.25 23.527344 225.277344 20.5 229 20.5 C 232.722656 20.5 235.75 23.527344 235.75 27.25 L 235.75 65.75 C 235.75 69.472656 232.722656 72.5 229 72.5 C 225.277344 72.5 222.25 69.472656 222.25 65.75 Z M 114.285156 27.25 C 114.285156 23.527344 117.3125 20.5 121.035156 20.5 C 124.757812 20.5 127.78125 23.527344 127.78125 27.25 L 127.78125 65.75 C 127.78125 69.472656 124.757812 72.5 121.035156 72.5 C 117.3125 72.5 114.285156 69.472656 114.285156 65.75 Z M 20 136.957031 L 20 90.5 C 20 73.957031 33.457031 60.5 50 60.5 L 94.285156 60.5 L 94.285156 65.75 C 94.285156 80.5 106.285156 92.5 121.035156 92.5 C 135.78125 92.5 147.78125 80.5 147.78125 65.75 L 147.78125 60.5 L 202.25 60.5 L 202.25 65.75 C 202.25 80.5 214.25 92.5 229 92.5 C 243.75 92.5 255.75 80.5 255.75 65.75 L 255.75 60.5 L 310.21875 60.5 L 310.21875 65.75 C 310.21875 80.5 322.21875 92.5 336.964844 92.5 C 351.714844 92.5 363.714844 80.5 363.714844 65.75 L 363.714844 60.5 L 408 60.5 C 424.542969 60.5 438 73.957031 438 90.5 L 438 136.957031 Z M 340 332.230469 C 340 320.101562 349.867188 310.230469 362 310.230469 C 371.125 310.230469 379 315.707031 382.320312 323.789062 C 371.578125 331.492188 362.777344 341.71875 356.777344 353.601562 C 347.160156 351.246094 340 342.5625 340 332.230469 Z M 430 452.4375 C 395.8125 452.4375 368 424.625 368 390.4375 C 368 356.25 395.8125 328.4375 430 328.4375 C 464.1875 328.4375 492 356.25 492 390.4375 C 492 424.625 464.1875 452.4375 430 452.4375 Z M 430 452.4375 " style=" stroke:none;fill-rule:nonzero;fill:rgb(0%,0%,0%);fill-opacity:1;" />
<path d="M 472.371094 361.242188 C 468.445312 357.355469 462.117188 357.386719 458.226562 361.308594 L 429.964844 389.835938 L 419.238281 379.109375 C 415.332031 375.203125 409 375.203125 405.09375 379.109375 C 401.1875 383.011719 401.1875 389.34375 405.09375 393.25 L 422.925781 411.085938 C 424.804688 412.960938 427.347656 414.011719 429.996094 414.011719 C 430.007812 414.011719 430.015625 414.011719 430.015625 414.011719 C 432.683594 414.007812 435.230469 412.941406 437.101562 411.050781 L 472.4375 375.386719 C 476.324219 371.460938 476.292969 365.132812 472.371094 361.242188 Z M 472.371094 361.242188 " style=" stroke:none;fill-rule:nonzero;fill:rgb(0%,0%,0%);fill-opacity:1;" />
<path d="M 96 182.5 C 72.839844 182.5 54 201.339844 54 224.5 C 54 247.660156 72.839844 266.5 96 266.5 C 119.160156 266.5 138 247.660156 138 224.5 C 138 201.339844 119.160156 182.5 96 182.5 Z M 96 246.5 C 83.867188 246.5 74 236.632812 74 224.5 C 74 212.367188 83.867188 202.5 96 202.5 C 108.132812 202.5 118 212.367188 118 224.5 C 118 236.632812 108.132812 246.5 96 246.5 Z M 96 246.5 " style=" stroke:none;fill-rule:nonzero;fill:rgb(0%,0%,0%);fill-opacity:1;" />
<path d="M 229 182.5 C 205.839844 182.5 187 201.339844 187 224.5 C 187 247.660156 205.839844 266.5 229 266.5 C 252.160156 266.5 271 247.660156 271 224.5 C 271 201.339844 252.160156 182.5 229 182.5 Z M 229 246.5 C 216.867188 246.5 207 236.632812 207 224.5 C 207 212.367188 216.867188 202.5 229 202.5 C 241.132812 202.5 251 212.367188 251 224.5 C 251 236.632812 241.132812 246.5 229 246.5 Z M 229 246.5 " style=" stroke:none;fill-rule:nonzero;fill:rgb(0%,0%,0%);fill-opacity:1;" />
<path d="M 362 266.5 C 385.160156 266.5 404 247.660156 404 224.5 C 404 201.339844 385.160156 182.5 362 182.5 C 338.839844 182.5 320 201.339844 320 224.5 C 320 247.660156 338.839844 266.5 362 266.5 Z M 362 202.5 C 374.132812 202.5 384 212.367188 384 224.5 C 384 236.632812 374.132812 246.5 362 246.5 C 349.867188 246.5 340 236.632812 340 224.5 C 340 212.367188 349.867188 202.5 362 202.5 Z M 362 202.5 " style=" stroke:none;fill-rule:nonzero;fill:rgb(0%,0%,0%);fill-opacity:1;" />
<path d="M 96 290.230469 C 72.839844 290.230469 54 309.074219 54 332.230469 C 54 355.390625 72.839844 374.230469 96 374.230469 C 119.160156 374.230469 138 355.390625 138 332.230469 C 138 309.074219 119.160156 290.230469 96 290.230469 Z M 96 354.230469 C 83.867188 354.230469 74 344.363281 74 332.230469 C 74 320.101562 83.867188 310.230469 96 310.230469 C 108.132812 310.230469 118 320.101562 118 332.230469 C 118 344.363281 108.132812 354.230469 96 354.230469 Z M 96 354.230469 " style=" stroke:none;fill-rule:nonzero;fill:rgb(0%,0%,0%);fill-opacity:1;" />
<path d="M 229 290.230469 C 205.839844 290.230469 187 309.074219 187 332.230469 C 187 355.390625 205.839844 374.230469 229 374.230469 C 252.160156 374.230469 271 355.390625 271 332.230469 C 271 309.074219 252.160156 290.230469 229 290.230469 Z M 229 354.230469 C 216.867188 354.230469 207 344.363281 207 332.230469 C 207 320.101562 216.867188 310.230469 229 310.230469 C 241.132812 310.230469 251 320.101562 251 332.230469 C 251 344.363281 241.132812 354.230469 229 354.230469 Z M 229 354.230469 " style=" stroke:none;fill-rule:nonzero;fill:rgb(0%,0%,0%);fill-opacity:1;" />
</g>
</svg>