<svg height="512pt" viewBox="0 0 512 512" width="512pt" xmlns="http://www.w3.org/2000/svg"><path d="m482 10h-347c-11.050781 0-20 8.949219-20 20v266h387v-266c0-11.050781-8.949219-20-20-20zm0 0" fill="#c4f0ff"/><path d="m502 356v-60h-388v60c0 11.050781 8.949219 20 20 20h130l-20 86h-16c-11.050781 0-20 8.949219-20 20v20h168v-20c0-11.050781-8.949219-20-20-20h-40l-20-86h186c11.050781 0 20-8.949219 20-20zm0 0" fill="#6e7b7f"/><path d="m256 326c-5.519531 0-10 4.480469-10 10s4.480469 10 10 10 10-4.480469 10-10-4.480469-10-10-10zm0 0"/><path d="m196 80c5.519531 0 10-4.480469 10-10s-4.480469-10-10-10-10 4.480469-10 10 4.480469 10 10 10zm0 0"/><path d="m196 163c5.519531 0 10-4.480469 10-10s-4.480469-10-10-10-10 4.480469-10 10 4.480469 10 10 10zm0 0"/><path d="m196 246c5.519531 0 10-4.480469 10-10s-4.480469-10-10-10-10 4.480469-10 10 4.480469 10 10 10zm0 0"/><path d="m482 0h-452c-16.542969 0-30 13.457031-30 30v326c0 16.542969 13.457031 30 30 30h173.40625l-15.347656 66h-32.058594c-16.542969 0-30 13.457031-30 30v20c0 5.523438 4.476562 10 10 10h240c5.523438 0 10-4.476562 10-10v-20c0-16.542969-13.457031-30-30-30h-32.058594l-15.347656-66h173.40625c16.542969 0 30-13.457031 30-30v-326c0-16.542969-13.457031-30-30-30zm-452 20h452c5.515625 0 10 4.484375 10 10v256h-472v-256c0-5.515625 4.484375-10 10-10zm336 462v10h-220v-10c0-5.515625 4.484375-10 10-10h39.964844c.015625 0 .03125.003906.042968.003906.019532 0 .039063-.003906.058594-.003906h119.867188c.019531 0 .039062.003906.058594.003906.011718 0 .027343-.003906.042968-.003906h39.964844c5.515625 0 10 4.484375 10 10zm-62.59375-30h-94.8125l15.347656-66h64.117188zm178.59375-86h-452c-5.515625 0-10-4.484375-10-10v-50h472v50c0 5.515625-4.484375 10-10 10zm0 0"/><path d="m85.929688 97.070312c1.953124 1.953126 4.511718 2.929688 7.070312 2.929688s5.117188-.976562 7.070312-2.929688l40-40c3.90625-3.90625 3.90625-10.234374 0-14.140624s-10.234374-3.90625-14.140624 0l-32.929688 32.929687-12.929688-12.929687c-3.90625-3.90625-10.234374-3.90625-14.140624 0s-3.90625 10.234374 0 14.140624zm0 0"/><path d="m85.929688 180.070312c1.953124 1.953126 4.511718 2.929688 7.070312 2.929688s5.117188-.976562 7.070312-2.929688l40-40c3.90625-3.90625 3.90625-10.234374 0-14.140624s-10.234374-3.90625-14.140624 0l-32.929688 32.929687-12.929688-12.929687c-3.90625-3.90625-10.234374-3.90625-14.140624 0s-3.90625 10.234374 0 14.140624zm0 0"/><path d="m85.929688 263.070312c1.953124 1.953126 4.511718 2.929688 7.070312 2.929688s5.117188-.976562 7.070312-2.929688l40-40c3.90625-3.90625 3.90625-10.234374 0-14.140624s-10.234374-3.90625-14.140624 0l-32.929688 32.929687-12.929688-12.929687c-3.90625-3.90625-10.234374-3.90625-14.140624 0s-3.90625 10.234374 0 14.140624zm0 0"/><path d="m236 80h206c5.523438 0 10-4.476562 10-10s-4.476562-10-10-10h-206c-5.523438 0-10 4.476562-10 10s4.476562 10 10 10zm0 0"/><path d="m236 163h206c5.523438 0 10-4.476562 10-10s-4.476562-10-10-10h-206c-5.523438 0-10 4.476562-10 10s4.476562 10 10 10zm0 0"/><path d="m236 246h206c5.523438 0 10-4.476562 10-10s-4.476562-10-10-10h-206c-5.523438 0-10 4.476562-10 10s4.476562 10 10 10zm0 0"/></svg>