<?xml version="1.0" encoding="iso-8859-1"?>
<!-- Generator: Adobe Illustrator 19.0.0, SVG Export Plug-In . SVG Version: 6.00 Build 0)  -->
<svg version="1.1" id="Capa_1" xmlns="http://www.w3.org/2000/svg" xmlns:xlink="http://www.w3.org/1999/xlink" x="0px" y="0px"
	 viewBox="0 0 512 512" style="enable-background:new 0 0 512 512;" xml:space="preserve">
<g>
	<path style="fill:#B3B6C3;" d="M82.508,195.216c-9.115,0-16.505,7.389-16.505,16.505v22.991c0,9.115,7.389,16.505,16.505,16.505
		h13.488v-56H82.508V195.216z"/>
	<path style="fill:#B3B6C3;" d="M456.021,195.216h-27.998c9.115,0,16.504,7.389,16.504,16.505v22.991
		c0,9.115-7.389,16.505-16.504,16.505h27.998c9.115,0,16.505-7.389,16.505-16.505V211.72
		C472.525,202.605,465.136,195.216,456.021,195.216z"/>
</g>
<path style="fill:#FF5D5D;" d="M455.39,251.207H145.61c-25.742,0-46.61,20.868-46.61,46.61v178.842
	C99,490.654,110.346,502,124.341,502h352.318C490.654,502,502,490.654,502,476.659V297.816
	C502,272.074,481.132,251.207,455.39,251.207z"/>
<path style="fill:#FFFFFF;" d="M195.996,263.207v-12H122v12c0,19.882,16.118,36,36,36h73.996
	C212.114,299.207,195.996,283.089,195.996,263.207z"/>
<path style="fill:#B3B6C3;" d="M390,263.207v-12H195.996v12c0,19.882,16.118,36,36,36H354C373.882,299.207,390,283.089,390,263.207z
	"/>
<path style="fill:#FFFFFF;" d="M416.529,42.118c0-14.876,10.152-28.532,23.905-32.118h0.095H128.646c-17.673,0-32,14.327-32,32
	v207.127l319.882,0.118v15.473v-222.6H416.529z"/>
<path style="fill:#99BBFF;" d="M462.528,13.243c-10.656,5.228-18.001,16.222-18.001,28.875v56.333h36.002V42.118
	C480.529,29.465,473.185,18.471,462.528,13.243z"/>
<rect x="182" y="59.21" style="fill:#D8FB93;" width="47.35" height="89.33"/>
<path d="M112.71,349c-2.63,0-5.21,1.069-7.07,2.93c-1.859,1.86-2.93,4.43-2.93,7.07c0,2.63,1.07,5.21,2.93,7.069
	c1.86,1.86,4.44,2.931,7.07,2.931s5.21-1.07,7.07-2.931c1.859-1.859,2.93-4.439,2.93-7.069s-1.07-5.21-2.93-7.07
	C117.92,350.069,115.35,349,112.71,349z"/>
<path d="M160.47,349c-2.63,0-5.2,1.069-7.07,2.93c-1.859,1.86-2.92,4.44-2.92,7.07s1.061,5.21,2.92,7.069
	c1.86,1.86,4.44,2.931,7.07,2.931c2.64,0,5.22-1.07,7.07-2.931c1.87-1.859,2.939-4.439,2.939-7.069s-1.069-5.21-2.939-7.07
	C165.68,350.069,163.109,349,160.47,349z"/>
<path d="M208.24,369c2.63,0,5.199-1.07,7.069-2.931c1.86-1.859,2.931-4.439,2.931-7.069s-1.07-5.21-2.931-7.07
	c-1.859-1.86-4.439-2.93-7.069-2.93c-2.631,0-5.21,1.069-7.07,2.93c-1.87,1.86-2.93,4.44-2.93,7.07s1.06,5.21,2.93,7.069
	C203.03,367.93,205.609,369,208.24,369z"/>
<path d="M256,369c2.63,0,5.21-1.07,7.069-2.931C264.93,364.21,266,361.63,266,359s-1.07-5.21-2.931-7.07
	C261.21,350.07,258.63,349,256,349s-5.21,1.069-7.07,2.93S246,356.37,246,359s1.069,5.21,2.93,7.069
	C250.79,367.93,253.37,369,256,369z"/>
<path d="M303.76,369c2.63,0,5.21-1.07,7.07-2.931c1.859-1.859,2.93-4.439,2.93-7.069s-1.07-5.21-2.93-7.07
	c-1.86-1.86-4.44-2.93-7.07-2.93s-5.21,1.069-7.07,2.93c-1.859,1.86-2.93,4.43-2.93,7.07c0,2.63,1.07,5.21,2.93,7.069
	C298.55,367.93,301.13,369,303.76,369z"/>
<path d="M351.529,369c2.631,0,5.2-1.07,7.07-2.931c1.86-1.859,2.93-4.439,2.93-7.069s-1.069-5.21-2.93-7.07
	c-1.87-1.86-4.439-2.93-7.07-2.93c-2.64,0-5.21,1.069-7.079,2.93c-1.86,1.86-2.931,4.44-2.931,7.07s1.07,5.21,2.931,7.069
	C346.31,367.93,348.89,369,351.529,369z"/>
<path d="M399.29,369c2.63,0,5.21-1.07,7.069-2.931c1.86-1.859,2.931-4.439,2.931-7.069s-1.07-5.21-2.931-7.07
	c-1.859-1.86-4.439-2.93-7.069-2.93s-5.21,1.069-7.07,2.93s-2.93,4.44-2.93,7.07s1.069,5.21,2.93,7.069
	C394.08,367.93,396.66,369,399.29,369z"/>
<path d="M112.71,438c-2.63,0-5.21,1.069-7.07,2.93c-1.859,1.86-2.93,4.44-2.93,7.07s1.07,5.21,2.93,7.069
	c1.86,1.86,4.44,2.931,7.07,2.931s5.21-1.07,7.07-2.931c1.859-1.859,2.93-4.439,2.93-7.069s-1.07-5.21-2.93-7.07
	C117.92,439.069,115.35,438,112.71,438z"/>
<path d="M160.479,438c-2.64,0-5.22,1.069-7.08,2.93c-1.859,1.86-2.92,4.44-2.92,7.07s1.061,5.21,2.92,7.069
	c1.87,1.86,4.44,2.931,7.08,2.931c2.63,0,5.2-1.07,7.061-2.931c1.87-1.859,2.939-4.439,2.939-7.069s-1.069-5.21-2.939-7.07
	C165.68,439.069,163.109,438,160.479,438z"/>
<path d="M304,438h-95.763c-5.522,0-10,4.478-10,10s4.478,10,10,10H304c5.522,0,10-4.478,10-10S309.522,438,304,438z"/>
<path d="M351.529,438c-2.64,0-5.22,1.069-7.079,2.93c-1.86,1.86-2.931,4.44-2.931,7.07s1.07,5.21,2.931,7.069
	c1.859,1.86,4.439,2.931,7.079,2.931c2.631,0,5.2-1.07,7.07-2.931c1.86-1.859,2.93-4.439,2.93-7.069s-1.069-5.21-2.93-7.07
	C356.74,439.069,354.16,438,351.529,438z"/>
<path d="M399.29,438c-2.63,0-5.21,1.069-7.07,2.93s-2.93,4.44-2.93,7.07c0,2.64,1.069,5.21,2.93,7.069
	c1.86,1.86,4.44,2.931,7.07,2.931s5.21-1.07,7.069-2.931c1.86-1.859,2.931-4.439,2.931-7.069s-1.07-5.21-2.931-7.07
	C404.5,439.069,401.92,438,399.29,438z"/>
<path d="M64,393.5c-2.63,0-5.21,1.069-7.07,2.93S54,400.87,54,403.5s1.069,5.21,2.93,7.069c1.86,1.86,4.44,2.931,7.07,2.931
	c2.63,0,5.21-1.07,7.069-2.931C72.93,408.71,74,406.13,74,403.5s-1.07-5.21-2.931-7.07C69.21,394.569,66.63,393.5,64,393.5z"/>
<path d="M112,413.5c2.63,0,5.21-1.07,7.069-2.931c1.86-1.859,2.931-4.439,2.931-7.069s-1.07-5.21-2.931-7.07
	c-1.859-1.86-4.439-2.93-7.069-2.93s-5.21,1.069-7.07,2.93s-2.93,4.44-2.93,7.07s1.069,5.21,2.93,7.069
	C106.79,412.43,109.37,413.5,112,413.5z"/>
<path d="M160,413.5c2.64,0,5.21-1.07,7.069-2.931c1.86-1.859,2.931-4.439,2.931-7.069s-1.07-5.21-2.931-7.07
	c-1.859-1.86-4.439-2.93-7.069-2.93s-5.21,1.069-7.07,2.93s-2.93,4.43-2.93,7.07c0,2.63,1.069,5.21,2.93,7.069
	C154.79,412.43,157.37,413.5,160,413.5z"/>
<path d="M208,413.5c2.63,0,5.21-1.07,7.069-2.931c1.86-1.859,2.931-4.439,2.931-7.069s-1.07-5.21-2.931-7.07
	c-1.859-1.86-4.439-2.93-7.069-2.93s-5.21,1.069-7.07,2.93s-2.93,4.44-2.93,7.07s1.069,5.21,2.93,7.069
	C202.79,412.43,205.37,413.5,208,413.5z"/>
<path d="M256,413.5c2.63,0,5.21-1.07,7.069-2.931c1.86-1.859,2.931-4.439,2.931-7.069s-1.07-5.21-2.931-7.07
	c-1.859-1.86-4.439-2.93-7.069-2.93s-5.21,1.069-7.07,2.93s-2.93,4.44-2.93,7.07s1.069,5.21,2.93,7.069
	C250.79,412.43,253.37,413.5,256,413.5z"/>
<path d="M304,393.5c-2.63,0-5.21,1.069-7.07,2.93s-2.93,4.44-2.93,7.07s1.069,5.21,2.93,7.069c1.86,1.86,4.44,2.931,7.07,2.931
	s5.21-1.07,7.069-2.931c1.86-1.859,2.931-4.439,2.931-7.069s-1.07-5.21-2.931-7.07C309.21,394.569,306.63,393.5,304,393.5z"/>
<path d="M352,393.5c-2.63,0-5.21,1.069-7.07,2.93s-2.93,4.44-2.93,7.07s1.069,5.21,2.93,7.069c1.86,1.86,4.44,2.931,7.07,2.931
	s5.21-1.07,7.069-2.931c1.86-1.859,2.931-4.439,2.931-7.069s-1.07-5.21-2.931-7.07C357.21,394.569,354.63,393.5,352,393.5z"/>
<path d="M400,393.5c-2.63,0-5.21,1.069-7.07,2.93s-2.93,4.44-2.93,7.07s1.069,5.21,2.93,7.069c1.86,1.86,4.44,2.931,7.07,2.931
	s5.21-1.07,7.069-2.931c1.86-1.859,2.931-4.439,2.931-7.069s-1.07-5.21-2.931-7.07C405.21,394.569,402.63,393.5,400,393.5z"/>
<path d="M440.93,396.43c-1.86,1.86-2.93,4.44-2.93,7.07s1.069,5.21,2.93,7.069c1.86,1.86,4.44,2.931,7.07,2.931
	s5.21-1.07,7.069-2.931c1.86-1.859,2.931-4.439,2.931-7.069s-1.07-5.21-2.931-7.07c-1.859-1.86-4.439-2.93-7.069-2.93
	S442.79,394.569,440.93,396.43z"/>
<path d="M482.525,233.216h9.62c0.782,4.744,4.89,8.366,9.855,8.366c5.522,0,10-4.478,10-10v-16.731c0-5.522-4.478-10-10-10
	c-4.964,0-9.073,3.622-9.855,8.365h-9.62v-1.495c0-14.615-11.89-26.505-26.505-26.505h-29.491v-76.765h54c5.522,0,10-4.478,10-10
	V42.117c0-23.224-18.841-42.117-42-42.117H128.646c-23.159,0-42,18.841-42,42v143.216H56.505C41.89,185.216,30,197.105,30,211.721
	v1.495H19.855c-0.782-4.743-4.891-8.365-9.855-8.365c-5.522,0-10,4.478-10,10v16.731c0,5.522,4.478,10,10,10
	c4.965,0,9.073-3.623,9.855-8.366H30v1.495c0,4.82,1.3,9.34,3.558,13.238C13.659,258.145,0,278.854,0,302.707V474
	c0,20.953,17.047,38,38,38h436c20.953,0,38-17.047,38-38V302.707c0-23.69-13.473-44.281-33.152-54.55
	c2.333-3.945,3.677-8.541,3.677-13.447V233.216z M426.529,42.117c0-12.195,9.869-22.117,22-22.117s22,9.922,22,22.117v46.334h-44
	V42.117z M426.529,205.216h29.491c3.587,0,6.505,2.918,6.505,6.505v22.99c0,3.587-2.918,6.505-6.505,6.505h-5.174
	c-0.116-0.001-0.23-0.009-0.346-0.009h-23.971L426.529,205.216L426.529,205.216z M106.646,42c0-12.131,9.869-22,22-22h284.16
	c-3.975,6.433-6.277,14.009-6.277,22.117v153.099v45.991H390H122h-15.354C106.646,241.207,106.646,42,106.646,42z M380,261.207v2
	c0,14.337-11.663,26-26,26H158c-14.337,0-26-11.663-26-26v-2H380z M50,211.721c0-3.587,2.918-6.505,6.505-6.505h29.491v35.991H61.5
	c-0.116,0-0.23,0.008-0.346,0.009h-4.649c-3.587,0-6.505-2.918-6.505-6.505C50,234.711,50,211.721,50,211.721z M492,302.707V474
	c0,9.925-8.075,18-18,18H38c-9.925,0-18-8.075-18-18V302.707c0-22.767,18.43-41.303,41.153-41.491L112,261.207v2
	c0,25.364,20.636,46,46,46h196c25.364,0,46-20.636,46-46v-2l50.847,0.009C473.57,261.404,492,279.94,492,302.707z"/>
<path d="M140.019,158.54h89.334c5.522,0,10-4.478,10-10V59.207c0-5.522-4.478-10-10-10h-89.334c-5.522,0-10,4.478-10,10v89.333
	C130.019,154.063,134.496,158.54,140.019,158.54z M150.019,69.207h69.334v69.333h-69.334V69.207z"/>
<path d="M274,69.207h97c5.522,0,10-4.478,10-10s-4.478-10-10-10h-97c-5.522,0-10,4.478-10,10S268.478,69.207,274,69.207z"/>
<path d="M274,113.207h97c5.522,0,10-4.478,10-10s-4.478-10-10-10h-97c-5.522,0-10,4.478-10,10S268.478,113.207,274,113.207z"/>
<path d="M274,157.207h97c5.522,0,10-4.478,10-10s-4.478-10-10-10h-97c-5.522,0-10,4.478-10,10S268.478,157.207,274,157.207z"/>
<path d="M371,181.207H181c-5.522,0-10,4.478-10,10s4.478,10,10,10h190c5.522,0,10-4.478,10-10S376.522,181.207,371,181.207z"/>
<path d="M140.02,181.21c-2.63,0-5.21,1.06-7.069,2.93c-1.86,1.86-2.931,4.43-2.931,7.07c0,2.63,1.07,5.21,2.931,7.07
	c1.859,1.859,4.439,2.93,7.069,2.93s5.21-1.07,7.07-2.93c1.86-1.87,2.93-4.44,2.93-7.07s-1.069-5.21-2.93-7.07
	C145.229,182.27,142.649,181.21,140.02,181.21z"/>
<g>
</g>
<g>
</g>
<g>
</g>
<g>
</g>
<g>
</g>
<g>
</g>
<g>
</g>
<g>
</g>
<g>
</g>
<g>
</g>
<g>
</g>
<g>
</g>
<g>
</g>
<g>
</g>
<g>
</g>
</svg>
